<?xml version="1.0" standalone="no"?>
<!DOCTYPE svg PUBLIC "-//W3C//DTD SVG 20010904//EN"
 "http://www.w3.org/TR/2001/REC-SVG-20010904/DTD/svg10.dtd">
<svg version="1.0" xmlns="http://www.w3.org/2000/svg"
 width="700.000000pt" height="700.000000pt" viewBox="0 0 700.000000 700.000000"
 preserveAspectRatio="xMidYMid meet">
<metadata>
Created by potrace 1.14, written by Peter Selinger 2001-2017
</metadata>
<g transform="translate(0.000000,700.000000) scale(0.100000,-0.100000)"
fill="#000000" stroke="none">
<path d="M0 3500 l0 -3500 3500 0 3500 0 0 3500 0 3500 -3500 0 -3500 0 0
-3500z m6256 2824 c71 -19 168 -86 214 -148 61 -80 82 -139 88 -238 7 -137
-19 -213 -118 -343 -68 -90 -182 -263 -482 -738 -863 -1365 -1347 -2052 -1904
-2702 -159 -186 -552 -581 -697 -701 -474 -390 -906 -567 -1289 -525 -707 77
-1143 737 -1342 2031 -68 439 -80 636 -46 736 66 191 233 302 441 292 76 -4
97 -9 161 -41 91 -45 167 -121 208 -210 26 -54 33 -90 55 -280 57 -499 125
-840 225 -1132 79 -229 191 -420 288 -488 250 -179 895 319 1641 1265 428 544
814 1111 1551 2278 406 643 523 811 610 875 120 88 248 111 396 69z"/>
</g>
</svg>
